<svg id="Layer_1" data-name="Layer 1" xmlns="http://www.w3.org/2000/svg" width="512" height="512" viewBox="0 0 512 512"><defs><style>.cls-1{fill:#2ea690;}</style></defs><path class="cls-1" d="M256,512C114.84,512,0,397.16,0,256S114.84,0,256,0,512,114.84,512,256,397.16,512,256,512Zm0-500.62C121.12,11.38,11.38,121.12,11.38,256S121.12,500.62,256,500.62,500.62,390.88,500.62,256,390.88,11.38,256,11.38Z"/><path class="cls-1" d="M165,250.31H347c3.14,0,5.69,3.82,5.69,8.54s-2.55,8.53-5.69,8.53H165c-3.14,0-5.69-3.82-5.69-8.53S161.86,250.31,165,250.31Z"/><path class="cls-1" d="M258.85,159.31c4.71,0,8.53,2.55,8.53,5.69h0V347c0,3.14-3.82,5.69-8.53,5.69s-8.54-2.55-8.54-5.69V165c0-3.14,3.79-5.7,8.51-5.71Z"/></svg>
